<?xml version="1.0" encoding="utf-8"?>
<!-- Generator: Adobe Illustrator 26.3.1, SVG Export Plug-In . SVG Version: 6.00 Build 0)  -->
<svg version="1.1" id="Layer_1" xmlns="http://www.w3.org/2000/svg" xmlns:xlink="http://www.w3.org/1999/xlink" x="0px" y="0px"
	 viewBox="0 0 613.8 132.6" style="enable-background:new 0 0 613.8 132.6;" xml:space="preserve">
<style type="text/css">
	.st0{fill:#424D57;}
	.st1{font-family:'Gotham-Light';}
	.st2{font-size:136.2819px;}
</style>
<path class="st0" d="M169.5,70.3c2.6-0.2,3.9-1.5,3.9-4c0-2.5-1.3-3.9-3.8-4.1c-1.1-0.1-2.3-0.1-3.6-0.1c-0.4,0-0.8,0-1.2,0
	c-35.3,0-70.5,0-105.8,0H25.4l3.9-4.2c0.7-0.8,1.3-1.4,1.9-2c1-1.1,1.7-1.9,2.5-2.6C41.7,45.1,49.9,37,58,28.9l7.5-7.5
	c0.5-0.5,0.9-0.9,1.4-1.4c1.6-1.7,2.5-3.4,2.4-4.8c0-1-0.4-1.8-1.3-2.6c-0.4-0.4-1.3-1.2-2.7-1.2c-1.1,0-2.6,0.6-4.4,2.3
	C43.3,31.3,27.4,47.1,12.5,62.2c-3.3,3.3-3.3,4.9,0.2,8.4c11,11,22.2,22.2,33,33.1l9,9c0.7,0.7,1.3,1.3,2,2c1.8,1.9,3.5,3.6,5.4,5.2
	c2.2,1.8,4,1.8,5.9-0.2c1.1-1.1,2.2-2.9,0-5.9c-0.5-0.6-1.1-1.2-1.7-1.8c-0.3-0.3-0.5-0.5-0.8-0.8l-9.1-9.1
	c-7.9-7.9-15.8-15.8-23.7-23.7c-0.7-0.7-1.2-1.4-1.9-2.2c-0.4-0.4-0.8-1-1.2-1.6l-3.3-4.1l139.7,0C167.2,70.4,168.4,70.4,169.5,70.3
	z"/>
<text transform="matrix(1 0 0 1 204.184 118.2623)" class="st0 st1 st2">BACK</text>
</svg>
