<?xml version="1.0" encoding="utf-8"?>
<!-- Generator: Adobe Illustrator 26.3.1, SVG Export Plug-In . SVG Version: 6.00 Build 0)  -->
<svg version="1.1" id="Layer_1" xmlns="http://www.w3.org/2000/svg" xmlns:xlink="http://www.w3.org/1999/xlink" x="0px" y="0px"
	 viewBox="0 0 613.8 132.6" style="enable-background:new 0 0 613.8 132.6;" xml:space="preserve">
<style type="text/css">
	.st0{fill:#424D57;}
	.st1{enable-background:new    ;}
</style>
<path class="st0" d="M169.5,70.3c2.6-0.2,3.9-1.5,3.9-4s-1.3-3.9-3.8-4.1c-1.1-0.1-2.3-0.1-3.6-0.1c-0.4,0-0.8,0-1.2,0
	c-35.3,0-70.5,0-105.8,0H25.4l3.9-4.2c0.7-0.8,1.3-1.4,1.9-2c1-1.1,1.7-1.9,2.5-2.6c8-8.2,16.2-16.3,24.3-24.4l7.5-7.5
	c0.5-0.5,0.9-0.9,1.4-1.4c1.6-1.7,2.5-3.4,2.4-4.8c0-1-0.4-1.8-1.3-2.6c-0.4-0.4-1.3-1.2-2.7-1.2c-1.1,0-2.6,0.6-4.4,2.3
	C43.3,31.3,27.4,47.1,12.5,62.2c-3.3,3.3-3.3,4.9,0.2,8.4c11,11,22.2,22.2,33,33.1l9,9c0.7,0.7,1.3,1.3,2,2c1.8,1.9,3.5,3.6,5.4,5.2
	c2.2,1.8,4,1.8,5.9-0.2c1.1-1.1,2.2-2.9,0-5.9c-0.5-0.6-1.1-1.2-1.7-1.8c-0.3-0.3-0.5-0.5-0.8-0.8l-9.1-9.1
	c-7.9-7.9-15.8-15.8-23.7-23.7c-0.7-0.7-1.2-1.4-1.9-2.2c-0.4-0.4-0.8-1-1.2-1.6l-3.3-4.1H166C167.2,70.4,168.4,70.4,169.5,70.3z"/>
<g class="st1">
	<path class="st0" d="M259.8,118.3h-41.4V22.9h39.4c18.5,0,30.9,9.1,30.9,23.4v0.3c0,12.9-8.4,19.5-16.2,22.6
		c11.4,3,21.5,9.5,21.5,22.8v0.3C294,108.2,280.4,118.3,259.8,118.3z M281.5,47c0-10.5-8.6-17.6-23.8-17.6h-32.2v37.5h31.5
		c14.3,0,24.5-7,24.5-19.6V47z M286.8,92c0-11.7-10.2-18.5-29-18.5h-32.3v38.3h34.6c16.4,0,26.7-7.5,26.7-19.5V92z"/>
	<path class="st0" d="M396.5,118.3l-12.1-26.7h-56.3l-12.1,26.7h-7.4L353,22.2h6.8l44.4,96.1H396.5z M356.3,30l-25.2,55.2h50.3
		L356.3,30z"/>
	<path class="st0" d="M462.2,119.9c-27.3,0-47.4-21.7-47.4-49.1v-0.3c0-27,20.2-49.3,47.7-49.3c17,0,27.3,6.3,37.1,15.3l-5,5.2
		c-8.3-8-17.9-14-32.2-14c-22.9,0-40.2,18.7-40.2,42.7v0.3c0,24.1,17.6,42.9,40.3,42.9c13.8,0,23.2-5.3,32.8-14.9l4.8,4.6
		C490,113.2,479.1,119.9,462.2,119.9z"/>
	<path class="st0" d="M589.6,118.3L550.3,70l-23.7,24v24.3h-7.1V22.9h7.1v62.7l60.8-62.7h9.7L555.4,65l43.5,53.3H589.6z"/>
</g>
</svg>
