<?xml version="1.0" encoding="utf-8"?>
<!-- Generator: Adobe Illustrator 26.3.1, SVG Export Plug-In . SVG Version: 6.00 Build 0)  -->
<svg version="1.1" id="Layer_1" xmlns="http://www.w3.org/2000/svg" xmlns:xlink="http://www.w3.org/1999/xlink" x="0px" y="0px"
	 viewBox="0 0 613.8 614.4" style="enable-background:new 0 0 613.8 614.4;" xml:space="preserve">
<style type="text/css">
	.st0{fill:#0B6EFD;}
</style>
<path class="st0" d="M27.6,35.5v553.8h553.8V35.5H27.6z M516.9,510.5c0,2.7-1.8,4.1-5.5,4.1H403c-3.4,0-6.6-0.9-9.4-2.7
	c-2.8-1.8-5.1-4.3-6.7-7.3l-82.4-109.6l-81.5,109.6c-1.6,3.1-3.8,5.5-6.7,7.3c-2.8,1.8-6,2.7-9.4,2.7H103.5H98c-1.6,0-3-0.4-4.2-1.2
	c-1.2-0.8-1.8-1.9-1.8-3.4c0-0.9,0.2-1.7,0.6-2.4c1.6-2.7,3.3-5.5,5-8.3c1.7-2.8,3.7-5.7,5.9-8.6l136.4-182.8
	c-23.2-31.4-46.2-62.4-69-93c-22.7-30.7-45.7-61.7-69-93c-1.2-1.4-2.2-2.8-2.9-4.1c-0.7-1.3-1.2-2.6-1.4-4.1c0.4-1.4,1.6-2.1,3.5-2
	c1.9,0.1,3.9-0.3,5.9-1.2h105.5c7.5,0,13.3,3.4,17.6,10.3l74.3,100.1l75.2-100.1c4.2-6.9,10.1-10.3,17.6-10.3h95.2
	c1.6,0,3.5,0,5.8,0c2.2,0,4.3,0,6.2,0.1c1.9,0.1,3.6,0.4,5,1c1.4,0.5,2.1,1.4,2.1,2.4c0,2.2-1.1,4.5-3.3,7.1L368.7,307.8
	l142.2,190.5c2,2.5,3.6,4.9,4.7,6.9C516.7,507.3,517.1,509,516.9,510.5z"/>
</svg>
