<?xml version="1.0" encoding="utf-8"?>
<!-- Generator: Adobe Illustrator 26.3.1, SVG Export Plug-In . SVG Version: 6.00 Build 0)  -->
<svg version="1.1" id="Layer_1" xmlns="http://www.w3.org/2000/svg" xmlns:xlink="http://www.w3.org/1999/xlink" x="0px" y="0px"
	 viewBox="0 0 82.9 280" style="enable-background:new 0 0 82.9 280;" xml:space="preserve">
<style type="text/css">
	.st0{fill:#424D57;}
</style>
<path class="st0" d="M41.6,70.7h-0.3C23.8,70.7,9.6,56.5,9.6,39v0c0-17.5,14.2-31.7,31.7-31.7h0.3c17.5,0,31.7,14.2,31.7,31.7v0
	C73.3,56.5,59.1,70.7,41.6,70.7z"/>
<path class="st0" d="M41.6,170.7h-0.3c-17.5,0-31.7-14.2-31.7-31.7v0c0-17.5,14.2-31.7,31.7-31.7h0.3c17.5,0,31.7,14.2,31.7,31.7v0
	C73.3,156.5,59.1,170.7,41.6,170.7z"/>
<path class="st0" d="M41.6,270.7h-0.3c-17.5,0-31.7-14.2-31.7-31.7v0c0-17.5,14.2-31.7,31.7-31.7h0.3c17.5,0,31.7,14.2,31.7,31.7v0
	C73.3,256.5,59.1,270.7,41.6,270.7z"/>
</svg>
