<?xml version="1.0" encoding="utf-8"?>
<!-- Generator: Adobe Illustrator 26.3.1, SVG Export Plug-In . SVG Version: 6.00 Build 0)  -->
<svg version="1.1" id="Layer_1" xmlns="http://www.w3.org/2000/svg" xmlns:xlink="http://www.w3.org/1999/xlink" x="0px" y="0px"
	 viewBox="0 0 1728.3 533.7" style="enable-background:new 0 0 1728.3 533.7;" xml:space="preserve">
<style type="text/css">
	.st0{fill:#AFCB36;}
	.st1{fill:#FFFFFF;}
	.st2{fill:none;}
</style>
<path class="st0" d="M1542.6,513.5H174.4c-82.9,0-150-67.2-150-150v-181c0-82.9,67.2-150,150-150h1368.2c82.9,0,150,67.2,150,150
	v181C1692.7,446.3,1625.5,513.5,1542.6,513.5z"/>
<g>
	<path class="st1" d="M197.2,299.9h-58.7V379h-16.2V167h78.9c47.8,0,80.8,23.9,80.8,64.8v0.6C282,276.9,242.5,299.9,197.2,299.9z
		 M265.8,232.7c0-33.6-26.7-51.2-65.9-51.2h-61.5v103.9h59.6c40.4,0,67.7-20.6,67.7-52.1V232.7z"/>
	<path class="st1" d="M486.4,379l-69.3-87.8H346V379h-16.2V167h91.3c46.9,0,77.7,24.8,77.7,60.3v0.6c0,35.4-27,55.7-63.7,60.6
		l71.8,90.6H486.4z M482.7,227.9c0-28.5-23-46.3-62.4-46.3H346v95.4h73.3c36.3,0,63.4-17.9,63.4-48.5V227.9z"/>
	<path class="st1" d="M556.6,379V167h16.2v212H556.6z"/>
	<path class="st1" d="M738.9,382.6c-65.9,0-109-51.2-109-109V273c0-57.8,43.8-109.6,109.7-109.6s109,51.2,109,109
		c0.3,0.3,0.3,0.3,0,0.6C848.6,330.8,804.8,382.6,738.9,382.6z M831.8,273c0-52.4-39.1-95.4-92.9-95.4s-92.3,42.4-92.3,94.8v0.6
		c0,52.4,39.1,95.4,92.9,95.4s92.3-42.4,92.3-94.8V273z"/>
	<path class="st1" d="M1060.1,379l-69.3-87.8h-71.1V379h-16.2V167h91.3c46.9,0,77.7,24.8,77.7,60.3v0.6c0,35.4-27,55.7-63.7,60.6
		l71.8,90.6H1060.1z M1056.4,227.9c0-28.5-23-46.3-62.4-46.3h-74.2v95.4H993c36.3,0,63.4-17.9,63.4-48.5V227.9z"/>
	<path class="st1" d="M1130.3,379V167h16.2v212H1130.3z"/>
	<path class="st1" d="M1289.7,181.5V379h-16.2V181.5h-75.8V167h167.7v14.5H1289.7z"/>
	<path class="st1" d="M1501.5,294.8V379h-16.2v-83.9L1392.2,167h20.2l81.4,113.9l81.7-113.9h19.3L1501.5,294.8z"/>
</g>
<rect x="1054.2" y="185.8" class="st2" width="5.1" height="0"/>
</svg>
