<?xml version="1.0" encoding="utf-8"?>
<!-- Generator: Adobe Illustrator 26.3.1, SVG Export Plug-In . SVG Version: 6.00 Build 0)  -->
<svg version="1.1" id="Layer_1" xmlns="http://www.w3.org/2000/svg" xmlns:xlink="http://www.w3.org/1999/xlink" x="0px" y="0px"
	 viewBox="0 0 613.8 614.4" style="enable-background:new 0 0 613.8 614.4;" xml:space="preserve">
<style type="text/css">
	.st0{fill:#424D57;}
</style>
<path class="st0" d="M304,7.8C142.7,7.8,11.9,138.6,11.9,299.9S142.7,592,304,592s292.1-130.8,292.1-292.1S465.4,7.8,304,7.8z
	 M350.8,517.1c0,3.3-1.1,6.3-3.2,8.8c-2.1,2.6-5.3,3.9-9.5,3.9h-72.6c-8.1,0-12.1-4.2-12.1-12.7v-66.8c0-3.7,1-6.6,3-8.8
	c2-2.2,5-3.3,9.1-3.3h72.6c3.1,0,6,1.1,8.7,3.3c2.7,2.2,4,5.2,4,8.8V517.1z M438.6,239.3c-2.7,9.7-6.2,18.3-10.5,25.5
	c-4.3,7.3-9.3,13.5-14.9,18.8c-5.6,5.2-11.3,9.9-17.1,14.1c-5.8,4.1-11.4,8-17,11.4c-5.5,3.5-10.4,7.2-14.8,11
	c-4.3,3.9-7.8,8.1-10.5,12.7c-2.7,4.6-4,10-4,16.3c0,7.2-0.2,12.9-0.7,17.1c-0.5,4.2-1.4,7.4-2.7,9.5c-1.4,2.1-3.4,3.4-6.1,4
	c-2.7,0.6-6.2,0.8-10.6,0.8h-64.4c-4,0-7.2-1.4-9.4-4.1c-2.2-2.8-3.3-5.9-3.3-9.4c0-9.7,0.1-18.3,0.4-25.7
	c0.3-7.4,0.7-13.8,1.2-19.3s1.3-10.1,2.2-13.8c0.9-3.7,2.1-6.7,3.6-9.1c5.1-8.3,11-15.2,17.5-20.7c6.5-5.5,13.2-10.3,19.9-14.5
	c6.8-4.1,13.5-8,20.1-11.4c6.6-3.5,12.4-7.4,17.5-11.6c5-4.2,9.1-9.2,12.2-15c3.1-5.8,4.7-13,4.7-21.7c0-5.9-1.3-11.6-3.9-17.1
	c-2.6-5.5-6-10.4-10.3-14.6c-4.3-4.2-9.3-7.6-15.1-10.1c-5.8-2.5-11.8-3.7-18-3.7c-6.2,0-12.2,1.3-17.9,3.9
	c-5.7,2.6-10.7,6.1-15.1,10.5c-4.4,4.4-7.9,9.5-10.5,15.2c-2.6,5.7-3.8,11.6-3.8,17.7v6.3c0,3.1-1.1,5.4-3.3,6.8
	c-2.2,1.4-5,2.3-8.3,2.6c-3.3,0.4-6.9,0.5-10.6,0.3c-3.8-0.2-7.1-0.3-10.1-0.3h-47.7c-4.6,0-7.8-1.2-9.5-3.7c-1.7-2.5-2.6-5-2.6-7.6
	v-9.1c0-19.3,3.8-37,11.4-53.1c7.6-16.1,17.8-29.9,30.6-41.5c12.8-11.6,27.6-20.6,44.4-27c16.8-6.4,34.4-9.7,52.8-9.7
	c18.9,0,36.7,3.4,53.5,10.2c16.7,6.8,31.4,16.2,44,28.3c12.6,12,22.5,26.3,29.8,42.8c7.3,16.5,10.9,34.3,10.9,53.6
	C442.6,218.1,441.3,229.6,438.6,239.3z"/>
</svg>
